<mxfile host="app.diagrams.net" modified="2023-06-28T13:14:04.638Z" agent="Mozilla/5.0 (Windows NT 10.0; Win64; x64) AppleWebKit/537.36 (KHTML, like Gecko) Chrome/114.0.0.0 Safari/537.36" version="21.5.1" etag="SL6Y8o_7PmirAeXsbI10" type="github">
  <diagram name="第 1 页" id="6kM5_PtSk4-brOK98n2H">
    <mxGraphModel>
      <root>
        <mxCell id="0" />
        <mxCell id="1" parent="0" />
      </root>
    </mxGraphModel>
  </diagram>
</mxfile>
